{"title":"Starstruck_1982_DiVX_AC3_Eng_Winman99.avi","uid":4834323,"size":1049227264,"categoryP":"video","categoryS":"movies","magnet":"?xt=urn:btih:194611f4f005a6743e7b044374762fe10d3009de&amp;dn=Starstruck_1982_DiVX_AC3_Eng_Winman99.avi&amp;tr=udp%3A%2F%2Ftracker.openbittorrent.com%3A80&amp;tr=udp%3A%2F%2Fopen.demonii.com%3A1337&amp;tr=udp%3A%2F%2Ftracker.coppersurfer.tk%3A6969&amp;tr=udp%3A%2F%2Fexodus.desync.com%3A6969","seeders":0,"leechers":1,"uploader":"Winman99","files":1,"time":1239256561,"description":"This is an Aussie version of your typical 1930's Mickey Rooney/Judy Garland film meets A HARD DAYS NIGHT from the Gillian Armstrong, director of such classics as MY BRILLIANT CAREER and MRS SOFFEL. Angus (Ross O'Donovan in a fantastic perfomence) is determined to make his big sister the pop star she wants to be. Parodies and satire of every rock/pop film ever abound with a fresh Aussie sense of humor and a very catchy original soundtrack make this a hard to find classic worth the search. \n\nDirector:Gillian Armstrong\n\nDuration                         : 1h 35mn\n\nCAST\n\n Jo Kennedy ...  Jackie \n Ross O'Donovan ...  Angus \n Margo Lee ...  Pearl \n Max Cullen ...  Reg \n Pat Evison ...  Nana \n John O'May ...  Terry \n Dennis Miller ...  Lou \n Norm Erskine ...  Hazza (as Norman Erskine) \n Melissa Jaffer ...  Mrs. Booth \n Phil Judd ...  One of The Swingers (as Philip Judd) \n Dwayne Hillman ...  One of The Swingers \n Ian Gilroy ...  One of The Swingers \n Ned Lander ...  Robbie \n Mark Little ...  Carl \n Ian Spence ...  Spider \n\n\nVideo\nFormat                           : MPEG-4 Visual\nFormat settings, BVOP            : Yes\nFormat settings, QPel            : No\nFormat settings, GMC             : No warppoints\nFormat settings, Matrix          : Default (H.263)\nMuxing mode                      : Packed bitstream\nCodec ID                         : DX50\nCodec ID/Hint                    : DivX 5\nDuration                         : 1h 35mn\nBit rate                         : 1 009 Kbps\nWidth                            : 608 pixels\nHeight                           : 336 pixels\nDisplay aspect ratio             : 16/9\nFrame rate                       : 23.976 fps\nResolution                       : 24 bits\nColorimetry                      : 4:2:0\nScan type                        : Progressive\nBits/(Pixel*Frame)               : 0.206\nStream size                      : 690 MiB (69%)\nWriting library                  : DivX 5.2.1 (DrDivX 106) (UTC 2004-09-08)\n\nAudio\nFormat                           : AC-3\nFormat/Info                      : Audio Coding 3\nCodec ID                         : 2000\nDuration                         : 1h 35mn\nBit rate mode                    : Constant\nBit rate                         : 448 Kbps\nChannel(s)                       : 6 channels\nChannel positions                : Front: L C R, Surround: L R, LFE\nSampling rate                    : 48.0 KHz\nStream size                      : 306 MiB (31%)\nAlignment                        : Split accross interleaves\nInterleave, duration             : 96 ms (2.30 video frames)\nInterleave, preload duration     : 96 ms\nLanguage                         : English","torrent":{"xt":"urn:btih:194611f4f005a6743e7b044374762fe10d3009de","amp;dn":"Starstruck_1982_DiVX_AC3_Eng_Winman99.avi","amp;tr":["udp%3A%2F%2Ftracker.openbittorrent.com%3A80","udp%3A%2F%2Fopen.demonii.com%3A1337","udp%3A%2F%2Ftracker.coppersurfer.tk%3A6969","udp%3A%2F%2Fexodus.desync.com%3A6969"],"infoHash":"194611f4f005a6743e7b044374762fe10d3009de","infoHashBuffer":{"type":"Buffer","data":[25,70,17,244,240,5,166,116,62,123,4,67,116,118,47,225,13,48,9,222]},"announce":[],"urlList":[]}}